<svg height="512pt" viewBox="0 0 512 512" width="512pt" xmlns="http://www.w3.org/2000/svg"><path d="m502 256c0 135.863281-110.136719 246-246 246s-246-110.136719-246-246 110.136719-246 246-246 246 110.136719 246 246zm0 0" fill="#a0e557"/><path d="m379.824219 256c0-135.863281-55.4375-246-123.824219-246s-123.824219 110.136719-123.824219 246 55.4375 246 123.824219 246 123.824219-110.136719 123.824219-246zm0 0" fill="#d8fb93"/><path d="m363.003906 419c-22.089844 0-40-17.910156-40-40s17.910156-40 40-40 40 17.910156 40 40-17.910156 40-40 40zm0 0" fill="#fff"/><path d="m146.835938 173c-22.09375 0-40-17.910156-40-40s17.90625-40 40-40c22.089843 0 40 17.910156 40 40s-17.910157 40-40 40zm0 0" fill="#fff"/><path d="m437.019531 74.980469c-48.351562-48.351563-112.640625-74.980469-181.019531-74.980469s-132.667969 26.628906-181.019531 74.980469c-48.351563 48.351562-74.980469 112.640625-74.980469 181.019531s26.628906 132.667969 74.980469 181.019531c48.351562 48.351563 112.640625 74.980469 181.019531 74.980469s132.667969-26.628906 181.019531-74.980469c48.351563-48.351562 74.980469-112.640625 74.980469-181.019531s-26.628906-132.667969-74.980469-181.019531zm26.054688 294.128906c-.460938-.0625-.929688-.109375-1.40625-.109375h-49.671875c-3.214844-15.777344-13.886719-28.863281-28.15625-35.433594 3.570312-21.835937 5.605468-44.496094 6.058594-67.566406h101.875c-1.558594 37.226562-11.777344 72.253906-28.699219 103.109375zm-207.074219-349.109375c29.152344 0 57.117188 23.636719 78.75 66.554688 5.679688 11.261718 10.71875 23.46875 15.089844 36.445312h-83.839844v-33c0-5.523438-4.476562-10-10-10s-10 4.476562-10 10v33h-50.171875c-2.652344-13.019531-10.382813-24.21875-21.023437-31.425781 21.652343-45.59375 50.980468-71.574219 81.195312-71.574219zm107.003906 309c-24.144531 0-44.347656 17.203125-48.992187 40h-48.011719v-103h103.894531c-.441406 21.53125-2.328125 42.65625-5.597656 63.03125-.429687-.007812-.859375-.03125-1.292969-.03125zm-97.003906-83v-103h89.875c8.460938 31.4375 13.269531 66.46875 14.015625 103zm-89.164062-113c0 16.542969-13.457032 30-30 30-16.542969 0-30-13.457031-30-30s13.457031-30 30-30c16.542968 0 30 13.457031 30 30zm-29.132813 49.976562c23.761719-.40625 43.535156-17.457031 48.125-39.976562h50.171875v103h-103.894531c.441406-21.523438 2.332031-42.648438 5.597656-63.023438zm98.296875 83.023438v103h-89.875c-8.460938-31.4375-13.269531-66.46875-14.015625-103zm0 123v102.054688c-25.496094-4.761719-49.605469-27.625-68.75-65.609376-5.679688-11.261718-10.71875-23.46875-15.089844-36.445312zm20 102.03125v-102.03125h48.011719c2.789062 13.683594 11.1875 25.347656 22.675781 32.488281-19.183594 39.890625-44.332031 64.527344-70.6875 69.542969zm67.003906-112.03125c0-16.542969 13.457032-30 30-30 16.542969 0 30 13.457031 30 30s-13.457031 30-30 30c-16.542968 0-30-13.457031-30-30zm56.886719-133c-.710937-36.265625-5.292969-71.222656-13.363281-103h86.609375c16.886719 30.828125 27.078125 65.816406 28.636719 103zm60.957031-123h-80c-5.121094-16.273438-11.214844-31.523438-18.238281-45.449219-10.179687-20.199219-21.847656-36.730469-34.585937-49.261719 54.714843 14.917969 101.570312 49.066407 132.824218 94.710938zm-256.589844-94.789062c-14.226562 13.898437-27.101562 32.660156-37.953124 55.699218-3.066407-.589844-6.230469-.910156-9.46875-.910156-24.148438 0-44.347657 17.207031-48.992188 40h-36.691406c31.308594-45.722656 78.273437-79.910156 133.105468-94.789062zm-145.394531 114.789062h48.976563c3.367187 16.519531 14.910156 30.09375 30.195312 36.320312-3.480468 21.566407-5.480468 43.917969-5.929687 66.679688h-32.105469c-5.523438 0-10 4.476562-10 10s4.476562 10 10 10h32.109375c.710937 36.265625 5.292969 71.222656 13.363281 103h-86.609375c-18.394531-33.578125-28.863281-72.089844-28.863281-113s10.46875-79.421875 28.863281-113zm12.289063 246h80c5.121094 16.273438 11.214844 31.523438 18.238281 45.449219 10.179687 20.199219 21.847656 36.730469 34.585937 49.261719-54.714843-14.917969-101.570312-49.066407-132.824218-94.710938zm256.785156 94.734375c14.234375-13.957031 26.855469-32.515625 37.601562-55.292969 2.4375.367188 4.929688.558594 7.464844.558594 24.148438 0 44.347656-17.203125 48.996094-40h38.847656c-31.273437 45.667969-78.160156 79.828125-132.910156 94.734375zm0 0"/><path d="m256 60c2.628906 0 5.210938-1.070312 7.070312-2.929688 1.859376-1.859374 2.929688-4.441406 2.929688-7.070312s-1.070312-5.210938-2.929688-7.070312c-1.859374-1.859376-4.441406-2.929688-7.070312-2.929688s-5.210938 1.070312-7.070312 2.929688c-1.859376 1.859374-2.929688 4.441406-2.929688 7.070312s1.070312 5.210938 2.929688 7.070312c1.859374 1.859376 4.441406 2.929688 7.070312 2.929688zm0 0"/><path d="m50 266c2.628906 0 5.210938-1.070312 7.070312-2.929688 1.859376-1.859374 2.929688-4.441406 2.929688-7.070312s-1.070312-5.210938-2.929688-7.070312c-1.859374-1.859376-4.441406-2.929688-7.070312-2.929688s-5.210938 1.070312-7.070312 2.929688c-1.859376 1.859374-2.929688 4.441406-2.929688 7.070312s1.070312 5.210938 2.929688 7.070312c1.859374 1.859376 4.441406 2.929688 7.070312 2.929688zm0 0"/></svg>